<svg
   xmlns="http://www.w3.org/2000/svg"
   class="bi"
   viewBox="0 0 16 16"
   alt="Select theme">
<path
     d="M 5.6707785,11.610233 A 0.43965472,0.43965472 0 0 1 6.1508011,11.496521 4.1263427,4.1263427 0 0 0 8.182213,11.71859 C 10.4617,11.398229 12.046348,9.2805317 11.724473,6.9902731 11.682486,6.6915191 11.610442,6.4050822 11.511638,6.1339685 a 0.45053159,0.45053159 0 0 1 0.114604,-0.4843624 0.41961837,0.41961837 0 0 1 0.508708,-0.05357 4.7795277,4.7795277 0 0 1 2.261818,3.43279 C 14.764056,11.642217 12.9561,14.054907 10.361985,14.419486 8.4095957,14.693876 6.5665584,13.730811 5.6169921,12.124203 a 0.43049524,0.43049524 0 0 1 0.053786,-0.51397 z" />
  <path
     d="m 7.8964844,4 a 4,4 0 0 0 -1.4296875,0.3046875 4.0000074,4.0000074 0 0 0 -2.1367188,5.28125 h -0.00195 a 0.50000091,0.50000091 0 0 0 0.060547,0.1289063 0.50000091,0.50000091 0 0 0 0.00195,0.00391 0.50000091,0.50000091 0 0 0 0.7441406,0.083984 L 9.7402344,5.1953125 v -0.00391 A 0.5,0.5 0 0 0 9.7617188,5.1738281 0.5,0.5 0 0 0 9.9257812,4.8046875 0.5,0.5 0 0 0 9.8886719,4.6152344 0.5,0.5 0 0 0 9.6640625,4.3632812 4,4 0 0 0 8.0644531,4 4,4 0 0 0 7.8964844,4 Z" />
  <path
     d="M 2.9003906,9.6054688 A 0.5,0.5 0 0 0 2.7265625,9.6425781 L 0.87890625,10.408203 A 0.50000091,0.50000091 0 0 0 1.2617188,11.332031 L 3.109375,10.566406 A 0.5,0.5 0 0 0 3.3808594,9.9140625 0.5,0.5 0 0 0 2.9003906,9.6054688 Z" />
  <path
     d="M 1.046875,4.6269531 A 0.5,0.5 0 0 0 0.87890625,5.5917969 L 2.7265625,6.3574219 A 0.5,0.5 0 0 0 3.3808594,6.0878906 0.5,0.5 0 0 0 3.109375,5.4335938 L 1.2617188,4.6679688 A 0.5,0.5 0 0 0 1.046875,4.6269531 Z" />
  <path
     d="M 10.875,0.5703125 A 0.5,0.5 0 0 0 10.408203,0.87890625 L 9.6425781,2.7265625 A 0.5003755,0.5003755 0 0 0 10.566406,3.1113281 L 11.332031,1.2617188 A 0.5,0.5 0 0 0 11.0625,0.609375 0.5,0.5 0 0 0 10.875,0.5703125 Z" />
  <path d="M 5.1113281,0.5703125 A 0.5,0.5 0 0 0 4.9394531,0.609375 0.5,0.5 0 0 0 4.6679688,1.2617188 L 5.4335938,3.109375 A 0.50000094,0.50000094 0 0 0 6.3574219,2.7265625 L 5.5917969,0.87890625 A 0.5,0.5 0 0 0 5.1113281,0.5703125 Z" />
  <path d="M 14.986328,0.75 A 0.25,0.25 0 0 0 14.822266,0.8222656 L 0.82226562,14.822266 a 0.25,0.25 0 0 0 0,0.355468 0.25,0.25 0 0 0 0.35546878,0 L 15.177734,1.1777344 a 0.25,0.25 0 0 0 0,-0.35546878 A 0.25,0.25 0 0 0 14.986328,0.75 Z" /> 
</svg>
