<?xml version="1.0" encoding="UTF-8" standalone="no"?>
<svg
   xmlns:dc="http://purl.org/dc/elements/1.1/"
   xmlns:cc="http://creativecommons.org/ns#"
   xmlns:rdf="http://www.w3.org/1999/02/22-rdf-syntax-ns#"
   xmlns:svg="http://www.w3.org/2000/svg"
   xmlns="http://www.w3.org/2000/svg"
   xmlns:sodipodi="http://sodipodi.sourceforge.net/DTD/sodipodi-0.dtd"
   xmlns:inkscape="http://www.inkscape.org/namespaces/inkscape"
   class="bi"
   viewBox="0 0 16 16"
   alt="Select theme"
   version="1.1"
   id="svg847"
   sodipodi:docname="bi-sun-slash-moon.svg"
   inkscape:version="1.0.1 (c497b03c, 2020-09-10)">
  <metadata
     id="metadata853">
    <rdf:RDF>
      <cc:Work
         rdf:about="">
        <dc:format>image/svg+xml</dc:format>
        <dc:type
           rdf:resource="http://purl.org/dc/dcmitype/StillImage" />
        <dc:title></dc:title>
      </cc:Work>
    </rdf:RDF>
  </metadata>
  <defs
     id="defs851">
    <inkscape:path-effect
       effect="bspline"
       id="path-effect1266"
       is_visible="true"
       lpeversion="1"
       weight="33.333333"
       steps="2"
       helper_size="0"
       apply_no_weight="true"
       apply_with_weight="true"
       only_selected="false" />
    <inkscape:path-effect
       effect="bspline"
       id="path-effect1548"
       is_visible="true"
       lpeversion="1"
       weight="33.333333"
       steps="2"
       helper_size="0"
       apply_no_weight="true"
       apply_with_weight="true"
       only_selected="false" />
    <inkscape:path-effect
       effect="bspline"
       id="path-effect1529"
       is_visible="true"
       lpeversion="1"
       weight="33.333333"
       steps="2"
       helper_size="0"
       apply_no_weight="true"
       apply_with_weight="true"
       only_selected="false" />
    <inkscape:path-effect
       effect="bspline"
       id="path-effect1517"
       is_visible="true"
       lpeversion="1"
       weight="33.333333"
       steps="2"
       helper_size="0"
       apply_no_weight="true"
       apply_with_weight="true"
       only_selected="false" />
    <inkscape:path-effect
       effect="bspline"
       id="path-effect1501"
       is_visible="true"
       lpeversion="1"
       weight="33.333333"
       steps="2"
       helper_size="0"
       apply_no_weight="true"
       apply_with_weight="true"
       only_selected="false" />
  </defs>
  <sodipodi:namedview
     pagecolor="#ffffff"
     bordercolor="#666666"
     borderopacity="1"
     objecttolerance="10"
     gridtolerance="10"
     guidetolerance="10"
     inkscape:pageopacity="0"
     inkscape:pageshadow="2"
     inkscape:window-width="1318"
     inkscape:window-height="761"
     id="namedview849"
     showgrid="true"
     inkscape:snap-bbox="true"
     inkscape:snap-global="false"
     inkscape:zoom="5.5691278"
     inkscape:cx="12.491282"
     inkscape:cy="-10.524126"
     inkscape:window-x="0"
     inkscape:window-y="25"
     inkscape:window-maximized="0"
     inkscape:current-layer="g1264"
     inkscape:snap-object-midpoints="true"
     inkscape:document-rotation="0"
     inkscape:snap-bbox-midpoints="false">
    <inkscape:grid
       type="xygrid"
       id="grid1491" />
  </sodipodi:namedview>
  <g
     inkscape:groupmode="layer"
     id="layer2"
     inkscape:label="Sun ORIG SVG"
     style="display:none"
     sodipodi:insensitive="true">
    <g
       id="g1478">
      <path
         d="M 8,12 A 4,4 0 1 0 8,4 4,4 0 0 0 8,12 Z M 8,0 a 0.5,0.5 0 0 1 0.5,0.5 v 2 a 0.5,0.5 0 0 1 -1,0 v -2 A 0.5,0.5 0 0 1 8,0 Z m 0,13 a 0.5,0.5 0 0 1 0.5,0.5 v 2 a 0.5,0.5 0 0 1 -1,0 v -2 A 0.5,0.5 0 0 1 8,13 Z m 8,-5 a 0.5,0.5 0 0 1 -0.5,0.5 h -2 a 0.5,0.5 0 0 1 0,-1 h 2 A 0.5,0.5 0 0 1 16,8 Z M 3,8 A 0.5,0.5 0 0 1 2.5,8.5 h -2 a 0.5,0.5 0 0 1 0,-1 h 2 A 0.5,0.5 0 0 1 3,8 Z M 13.657,2.343 a 0.5,0.5 0 0 1 0,0.707 L 12.243,4.465 A 0.50027817,0.50027817 0 1 1 11.536,3.757 L 12.95,2.343 a 0.5,0.5 0 0 1 0.707,0 z m -9.193,9.193 a 0.5,0.5 0 0 1 0,0.707 L 3.05,13.657 A 0.5,0.5 0 0 1 2.343,12.95 l 1.414,-1.414 a 0.5,0.5 0 0 1 0.707,0 z m 9.193,2.121 a 0.5,0.5 0 0 1 -0.707,0 l -1.414,-1.414 a 0.5,0.5 0 0 1 0.707,-0.707 l 1.414,1.414 a 0.5,0.5 0 0 1 0,0.707 z M 4.464,4.465 a 0.5,0.5 0 0 1 -0.707,0 L 2.343,3.05 A 0.5,0.5 0 1 1 3.05,2.343 l 1.414,1.414 a 0.5,0.5 0 0 1 0,0.708 z"
         id="path845" />
    </g>
  </g>
  <g
     inkscape:groupmode="layer"
     id="layer1"
     inkscape:label="Moon ORIG SVG"
     style="display:none"
     sodipodi:insensitive="true">
    <path
       d="M 6.6002493,0.27766707 A 0.76803204,0.76803204 0 0 1 6.6802526,1.1357029 7.2083007,7.2083007 0 0 0 5.802216,4.5958477 c 0,4.0211677 3.2781366,7.2773033 7.318305,7.2773033 0.527022,0 1.040044,-0.055 1.533064,-0.160006 a 0.78703283,0.78703283 0 0 1 0.810034,0.316013 0.73303058,0.73303058 0 0 1 -0.031,0.893037 8.3493483,8.3493483 0 0 1 -6.488271,3.078128 C 4.3341558,16.000323 0.6,12.286168 0.6,7.7099776 0.6,4.2658339 2.7140882,1.3117102 5.7242137,0.05965797 a 0.75203137,0.75203137 0 0 1 0.8760356,0.2180091 z"
       id="path1462"
       style="stroke-width:1.00004" />
  </g>
  <g
     inkscape:groupmode="layer"
     id="g1505"
     inkscape:label="Moon larger"
     style="display:inline"
     sodipodi:insensitive="true">
    <path
       d="M 5.6707785,11.610233 A 0.43965472,0.43965472 0 0 1 6.1508011,11.496521 4.1263427,4.1263427 0 0 0 8.182213,11.71859 C 10.4617,11.398229 12.046348,9.2805317 11.724473,6.9902731 11.682486,6.6915191 11.610442,6.4050822 11.511638,6.1339685 a 0.45053159,0.45053159 0 0 1 0.114604,-0.4843624 0.41961837,0.41961837 0 0 1 0.508708,-0.05357 4.7795277,4.7795277 0 0 1 2.261818,3.43279 C 14.764056,11.642217 12.9561,14.054907 10.361985,14.419486 8.4095957,14.693876 6.5665584,13.730811 5.6169921,12.124203 a 0.43049524,0.43049524 0 0 1 0.053786,-0.51397 z"
       id="path1503"
       style="stroke-width:0.572466" />
  </g>
  <g
     inkscape:groupmode="layer"
     id="g1620"
     inkscape:label="Moon "
     style="display:none"
     sodipodi:insensitive="true">
    <path
       d="m 6.2616577,11.390459 a 0.379648,0.379648 0 0 1 0.4145062,-0.09819 3.5631546,3.5631546 0 0 0 1.7541526,0.19176 C 10.398685,11.207391 11.767051,9.3787291 11.489107,7.4010587 11.452851,7.1430805 11.39064,6.8957382 11.305321,6.6616277 a 0.38904033,0.38904033 0 0 1 0.09896,-0.4182537 0.36234633,0.36234633 0 0 1 0.439277,-0.046258 4.127189,4.127189 0 0 1 1.953111,2.9642622 C 14.11383,11.418078 12.552634,13.501469 10.31258,13.816288 8.6266646,14.053228 7.0351762,13.221608 6.2152124,11.834279 a 0.37173866,0.37173866 0 0 1 0.046445,-0.44382 z"
       id="path1618"
       style="stroke-width:0.494332" />
  </g>
  <g
     inkscape:groupmode="layer"
     id="g1260"
     inkscape:label="Moon orig, smaller"
     style="display:none"
     sodipodi:insensitive="true">
    <path
       d="m 10.08495,7.8026408 a 0.379648,0.379648 0 0 1 0.09819,0.414506 3.5631546,3.5631546 0 0 0 -0.1917595,1.7541534 c 0.2766365,1.9683668 2.1052985,3.3367338 4.0829695,3.0587898 0.257978,-0.03626 0.50532,-0.09847 0.739431,-0.183786 a 0.38904033,0.38904033 0 0 1 0.418253,0.09896 0.36234633,0.36234633 0 0 1 0.04626,0.439277 4.127189,4.127189 0 0 1 -2.964262,1.953111 c -2.256699,0.317161 -4.3400898,-1.244035 -4.6549088,-3.48409 -0.23694,-1.685915 0.59468,-3.2774022 1.9820093,-4.0973662 a 0.37173866,0.37173866 0 0 1 0.4438195,0.04645 z"
       id="path1258"
       style="stroke-width:0.494332" />
  </g>
  <g
     inkscape:groupmode="layer"
     id="g1511"
     inkscape:label="Sun copy"
     style="display:none"
     sodipodi:insensitive="true">
    <g
       id="g1509"
       transform="rotate(-22.5,8,8)">
      <path
         d="M 8,12 A 4,4 0 1 0 8,4 4,4 0 0 0 8,12 Z M 8,0 a 0.5,0.5 0 0 1 0.5,0.5 v 2 a 0.5,0.5 0 0 1 -1,0 v -2 A 0.5,0.5 0 0 1 8,0 Z m 0,13 a 0.5,0.5 0 0 1 0.5,0.5 v 2 a 0.5,0.5 0 0 1 -1,0 v -2 A 0.5,0.5 0 0 1 8,13 Z m 8,-5 a 0.5,0.5 0 0 1 -0.5,0.5 h -2 a 0.5,0.5 0 0 1 0,-1 h 2 A 0.5,0.5 0 0 1 16,8 Z M 3,8 A 0.5,0.5 0 0 1 2.5,8.5 h -2 a 0.5,0.5 0 0 1 0,-1 h 2 A 0.5,0.5 0 0 1 3,8 Z M 13.657,2.343 a 0.5,0.5 0 0 1 0,0.707 L 12.243,4.465 A 0.50027817,0.50027817 0 1 1 11.536,3.757 L 12.95,2.343 a 0.5,0.5 0 0 1 0.707,0 z m -9.193,9.193 a 0.5,0.5 0 0 1 0,0.707 L 3.05,13.657 A 0.5,0.5 0 0 1 2.343,12.95 l 1.414,-1.414 a 0.5,0.5 0 0 1 0.707,0 z m 9.193,2.121 a 0.5,0.5 0 0 1 -0.707,0 l -1.414,-1.414 a 0.5,0.5 0 0 1 0.707,-0.707 l 1.414,1.414 a 0.5,0.5 0 0 1 0,0.707 z M 4.464,4.465 a 0.5,0.5 0 0 1 -0.707,0 L 2.343,3.05 A 0.5,0.5 0 1 1 3.05,2.343 l 1.414,1.414 a 0.5,0.5 0 0 1 0,0.708 z"
         id="path1507" />
    </g>
  </g>
  <g
     inkscape:groupmode="layer"
     id="g1523"
     inkscape:label="Half sun orig"
     style="display:none"
     sodipodi:insensitive="true">
    <path
       d="M 2.9003906,9.6054688 A 0.5,0.5 0 0 0 2.7265625,9.6425781 L 0.87890625,10.408203 A 0.50000091,0.50000091 0 0 0 1.2617188,11.332031 L 3.109375,10.566406 A 0.5,0.5 0 0 0 3.3808594,9.9140625 0.5,0.5 0 0 0 2.9003906,9.6054688 Z"
       id="path1610" />
    <path
       d="M 1.046875,4.6269531 A 0.5,0.5 0 0 0 0.87890625,5.5917969 L 2.7265625,6.3574219 A 0.5,0.5 0 0 0 3.3808594,6.0878906 0.5,0.5 0 0 0 3.109375,5.4335938 L 1.2617188,4.6679688 A 0.5,0.5 0 0 0 1.046875,4.6269531 Z"
       id="path1604" />
    <path
       d="M 7.8984375,4 A 4,4 0 0 0 6.46875,4.3046875 4.0000074,4.0000074 0 0 0 4.6914062,10.246094 L 10.246094,4.6914062 A 4,4 0 0 0 8.0664062,4 4,4 0 0 0 7.8984375,4 Z"
       id="path1602" />
    <path
       d="M 10.875,0.5703125 A 0.5,0.5 0 0 0 10.408203,0.87890625 L 9.6425781,2.7265625 A 0.5003755,0.5003755 0 0 0 10.566406,3.1113281 L 11.332031,1.2617188 A 0.5,0.5 0 0 0 11.0625,0.609375 0.5,0.5 0 0 0 10.875,0.5703125 Z"
       id="path1600" />
    <path
       d="M 5.1113281,0.5703125 A 0.5,0.5 0 0 0 4.9394531,0.609375 0.5,0.5 0 0 0 4.6679688,1.2617188 L 5.4335938,3.109375 A 0.50000094,0.50000094 0 0 0 6.3574219,2.7265625 L 5.5917969,0.87890625 A 0.5,0.5 0 0 0 5.1113281,0.5703125 Z"
       id="path1573" />
  </g>
  <g
     inkscape:groupmode="layer"
     id="g1632"
     inkscape:label="Lower cutout"
     style="display:none"
     sodipodi:insensitive="true">
    <path
       d="M 5.4634576,4.3666508 A 4,4 0 0 0 4.6679625,5.5930391 4.0000074,4.0000074 0 0 0 7.6123995,11.05102 V 3.195505 A 4,4 0 0 0 5.5822294,4.247879 4,4 0 0 0 5.4634576,4.3666508 Z"
       id="path1602-9-6"
       style="display:inline;fill:#ffff00" />
    <path
       id="path1602-9-6-8"
       style="display:inline;fill:#00ff00"
       d="m 7.6132812,10.751953 a 0.250025,0.250025 0 0 1 -0.2988281,0.224609 c -0.035476,-0.0068 -0.068904,-0.01694 -0.1035156,-0.02539 a 4.0000074,4.0000074 0 0 0 0.4023437,0.09961 z" />
    <path
       d="M 2.9003906,9.6054688 A 0.5,0.5 0 0 0 2.7265625,9.6425781 L 0.87890625,10.408203 A 0.50000091,0.50000091 0 0 0 1.2617188,11.332031 L 3.109375,10.566406 A 0.5,0.5 0 0 0 3.3808594,9.9140625 0.5,0.5 0 0 0 2.9003906,9.6054688 Z"
       id="path1622" />
    <path
       d="M 1.046875,4.6269531 A 0.5,0.5 0 0 0 0.87890625,5.5917969 L 2.7265625,6.3574219 A 0.5,0.5 0 0 0 3.3808594,6.0878906 0.5,0.5 0 0 0 3.109375,5.4335938 L 1.2617188,4.6679688 A 0.5,0.5 0 0 0 1.046875,4.6269531 Z"
       id="path1624" />
    <path
       d="M 10.875,0.5703125 A 0.5,0.5 0 0 0 10.408203,0.87890625 L 9.6425781,2.7265625 A 0.5003755,0.5003755 0 0 0 10.566406,3.1113281 L 11.332031,1.2617188 A 0.5,0.5 0 0 0 11.0625,0.609375 0.5,0.5 0 0 0 10.875,0.5703125 Z"
       id="path1628" />
    <path
       d="M 5.1113281,0.5703125 A 0.5,0.5 0 0 0 4.9394531,0.609375 0.5,0.5 0 0 0 4.6679688,1.2617188 L 5.4335938,3.109375 A 0.50000094,0.50000094 0 0 0 6.3574219,2.7265625 L 5.5917969,0.87890625 A 0.5,0.5 0 0 0 5.1113281,0.5703125 Z"
       id="path1630" />
    <g
       id="g1071"
       style="opacity:1" />
  </g>
  <g
     inkscape:groupmode="layer"
     id="g1110"
     inkscape:label="Half sun rounded too little"
     style="display:none"
     sodipodi:insensitive="true">
    <path
       id="path1096"
       style="display:inline;fill:#000000"
       d="M 10.014967,4.5606009 A 0.250025,0.250025 0 0 0 9.9831989,4.534363 C 9.9344764,4.5012407 9.8818878,4.4755915 9.8312813,4.4459748 a 4,4 0 0 1 0.1284422,0.06767 4,4 0 0 0 -0.143631,-0.07734 4,4 0 0 0 -1.7511942,-0.4364175 4,4 0 0 0 -0.1684902,0 4,4 0 0 0 -1.4294053,0.3052161 4.0000074,4.0000074 0 0 0 -1.990119,5.5864201 c 0.018535,0.03041 0.034966,0.06126 0.055243,0.09115 a 0.250025,0.250025 0 0 0 0.3701259,0.052478 L 10.01911,4.918297 A 0.250025,0.250025 0 0 0 10.02881,4.5744112 0.250025,0.250025 0 0 0 10.015,4.5606002 Z" />
    <path
       d="M 2.9003906,9.6054688 A 0.5,0.5 0 0 0 2.7265625,9.6425781 L 0.87890625,10.408203 A 0.50000091,0.50000091 0 0 0 1.2617188,11.332031 L 3.109375,10.566406 A 0.5,0.5 0 0 0 3.3808594,9.9140625 0.5,0.5 0 0 0 2.9003906,9.6054688 Z"
       id="path1100" />
    <path
       d="M 1.046875,4.6269531 A 0.5,0.5 0 0 0 0.87890625,5.5917969 L 2.7265625,6.3574219 A 0.5,0.5 0 0 0 3.3808594,6.0878906 0.5,0.5 0 0 0 3.109375,5.4335938 L 1.2617188,4.6679688 A 0.5,0.5 0 0 0 1.046875,4.6269531 Z"
       id="path1102" />
    <path
       d="M 10.875,0.5703125 A 0.5,0.5 0 0 0 10.408203,0.87890625 L 9.6425781,2.7265625 A 0.5003755,0.5003755 0 0 0 10.566406,3.1113281 L 11.332031,1.2617188 A 0.5,0.5 0 0 0 11.0625,0.609375 0.5,0.5 0 0 0 10.875,0.5703125 Z"
       id="path1104" />
    <path
       d="M 5.1113281,0.5703125 A 0.5,0.5 0 0 0 4.9394531,0.609375 0.5,0.5 0 0 0 4.6679688,1.2617188 L 5.4335938,3.109375 A 0.50000094,0.50000094 0 0 0 6.3574219,2.7265625 L 5.5917969,0.87890625 A 0.5,0.5 0 0 0 5.1113281,0.5703125 Z"
       id="path1106" />
    <g
       id="g1108"
       style="opacity:1" />
  </g>
  <g
     inkscape:groupmode="layer"
     id="g1141"
     inkscape:label="Half sun rounded"
     style="display:inline"
     sodipodi:insensitive="true">
    <path
       id="path1129-8-6"
       style="display:inline;fill:#000000"
       d="m 7.8964844,4 a 4,4 0 0 0 -1.4296875,0.3046875 4.0000074,4.0000074 0 0 0 -2.1367188,5.28125 h -0.00195 a 0.50000091,0.50000091 0 0 0 0.060547,0.1289063 0.50000091,0.50000091 0 0 0 0.00195,0.00391 0.50000091,0.50000091 0 0 0 0.7441406,0.083984 L 9.7402344,5.1953125 v -0.00391 A 0.5,0.5 0 0 0 9.7617188,5.1738281 0.5,0.5 0 0 0 9.9257812,4.8046875 0.5,0.5 0 0 0 9.8886719,4.6152344 0.5,0.5 0 0 0 9.6640625,4.3632812 4,4 0 0 0 8.0644531,4 4,4 0 0 0 7.8964844,4 Z" />
    <path
       d="M 2.9003906,9.6054688 A 0.5,0.5 0 0 0 2.7265625,9.6425781 L 0.87890625,10.408203 A 0.50000091,0.50000091 0 0 0 1.2617188,11.332031 L 3.109375,10.566406 A 0.5,0.5 0 0 0 3.3808594,9.9140625 0.5,0.5 0 0 0 2.9003906,9.6054688 Z"
       id="path1131" />
    <path
       d="M 1.046875,4.6269531 A 0.5,0.5 0 0 0 0.87890625,5.5917969 L 2.7265625,6.3574219 A 0.5,0.5 0 0 0 3.3808594,6.0878906 0.5,0.5 0 0 0 3.109375,5.4335938 L 1.2617188,4.6679688 A 0.5,0.5 0 0 0 1.046875,4.6269531 Z"
       id="path1133" />
    <path
       d="M 10.875,0.5703125 A 0.5,0.5 0 0 0 10.408203,0.87890625 L 9.6425781,2.7265625 A 0.5003755,0.5003755 0 0 0 10.566406,3.1113281 L 11.332031,1.2617188 A 0.5,0.5 0 0 0 11.0625,0.609375 0.5,0.5 0 0 0 10.875,0.5703125 Z"
       id="path1135" />
    <path
       d="M 5.1113281,0.5703125 A 0.5,0.5 0 0 0 4.9394531,0.609375 0.5,0.5 0 0 0 4.6679688,1.2617188 L 5.4335938,3.109375 A 0.50000094,0.50000094 0 0 0 6.3574219,2.7265625 L 5.5917969,0.87890625 A 0.5,0.5 0 0 0 5.1113281,0.5703125 Z"
       id="path1137" />
    <g
       id="g1139"
       style="opacity:1" />
  </g>
  <g
     inkscape:groupmode="layer"
     id="layer5"
     inkscape:label="Upper cutout"
     style="display:none"
     sodipodi:insensitive="true">
    <path
       id="path1602-9-6-8-26"
       style="display:inline;fill:#00ff00"
       d="m 7.6132812,3.1953125 a 4,4 0 0 0 -0.484375,0.1230469 c 0.06287,-0.015402 0.1237011,-0.036668 0.1875,-0.048828 a 0.250025,0.250025 0 0 1 0.060547,-0.00391 0.250025,0.250025 0 0 1 0.2363281,0.25 z" />
    <g
       id="g1058"
       style="opacity:1;fill:#ff00ff;fill-opacity:0.675439;stroke:none" />
  </g>
  <g
     inkscape:groupmode="layer"
     id="g1515"
     inkscape:label="Slash wide"
     style="display:none"
     sodipodi:insensitive="true">
    <path
       style="color:#000000;font-style:normal;font-variant:normal;font-weight:normal;font-stretch:normal;font-size:medium;line-height:normal;font-family:sans-serif;font-variant-ligatures:normal;font-variant-position:normal;font-variant-caps:normal;font-variant-numeric:normal;font-variant-alternates:normal;font-variant-east-asian:normal;font-feature-settings:normal;font-variation-settings:normal;text-indent:0;text-align:start;text-decoration:none;text-decoration-line:none;text-decoration-style:solid;text-decoration-color:#000000;letter-spacing:normal;word-spacing:normal;text-transform:none;writing-mode:lr-tb;direction:ltr;text-orientation:mixed;dominant-baseline:auto;baseline-shift:baseline;text-anchor:start;white-space:normal;shape-padding:0;shape-margin:0;inline-size:0;clip-rule:nonzero;display:inline;overflow:visible;visibility:visible;opacity:1;isolation:auto;mix-blend-mode:normal;color-interpolation:sRGB;color-interpolation-filters:linearRGB;solid-color:#000000;solid-opacity:1;vector-effect:none;fill:#00ff00;fill-opacity:1;fill-rule:nonzero;stroke:none;stroke-width:1.5;stroke-linecap:round;stroke-linejoin:miter;stroke-miterlimit:4;stroke-dasharray:none;stroke-dashoffset:0;stroke-opacity:1;color-rendering:auto;image-rendering:auto;shape-rendering:auto;text-rendering:auto;enable-background:accumulate;stop-color:#000000;stop-opacity:1"
       d="M 15.005859,0.25 A 0.75,0.75 0 0 0 14.46875,0.46875 l -14,14 a 0.75,0.75 0 0 0 0,1.0625 0.75,0.75 0 0 0 1.0625,0 l 14,-14 a 0.75,0.75 0 0 0 0,-1.0625 A 0.75,0.75 0 0 0 15.005859,0.25 Z"
       id="path1579" />
  </g>
  <g
     inkscape:groupmode="layer"
     id="layer4"
     inkscape:label="Slash"
     style="display:inline"
     sodipodi:insensitive="true">
    <path
       style="fill:none;stroke:#000000;stroke-width:0.5;stroke-linecap:round;stroke-linejoin:miter;stroke-miterlimit:4;stroke-dasharray:none;stroke-opacity:1"
       d="M 1,15 C 5.6666667,10.333333 10.333333,5.6666667 15,1"
       id="path1499"
       inkscape:path-effect="#path-effect1501"
       inkscape:original-d="M 1,15 C 5.6676665,10.334333 10.334333,5.6676665 15,1"
       sodipodi:nodetypes="cc" />
  </g>
  <g
     inkscape:groupmode="layer"
     id="g1264"
     inkscape:label="Slash shorter"
     style="display:none"
     sodipodi:insensitive="true">
    <path
       style="mix-blend-mode:normal;fill:#000000;stroke:#000000;stroke-width:0.5;stroke-linecap:round;stroke-linejoin:miter;stroke-miterlimit:4;stroke-dasharray:none;stroke-opacity:1"
       d="M 2,14 C 6.0000001,10 10,6 14,2"
       id="path1262"
       inkscape:path-effect="#path-effect1266"
       inkscape:original-d="M 2,14 C 6.0010001,10.001 10.001,6.0010001 14,2"
       sodipodi:nodetypes="cc" />
  </g>
</svg>
